# xmcd
#
# Track frame offsets:
#	150
#	21292
#	44034
#	64915
#	87942
#	107295
#	126907
#	149835
#	172624
#
# Disc length: 2696 seconds
#
# Revision: 0
# Processed by: cddbd v1.5.1PL0 Copyright (c) Steve Scherf et al.
# Submitted via: dBpowerAMP V4.0
#
DISCID=7b0a8609
DTITLE=Love Doctor - Let's Have Some Fun
DYEAR=1900
DGENRE=Blues
TTITLE0=Let's Have Some Fun ( radio)
TTITLE1=Stroke On Me
TTITLE2=Two Places
TTITLE3=Why You Lied
TTITLE4=Spend The Weekend
TTITLE5=I'm Through With You
TTITLE6=He Don't Love You
TTITLE7=Full Time Lover
TTITLE8=Lets Have Some Fun (club)
EXTD=
EXTT0=
EXTT1=
EXTT2=
EXTT3=
EXTT4=
EXTT5=
EXTT6=
EXTT7=
EXTT8=
PLAYORDER=
